<mxfile host="app.diagrams.net" agent="Mozilla/5.0 (X11; Linux x86_64) AppleWebKit/537.36 (KHTML, like Gecko) Chrome/131.0.0.0 Safari/537.36" version="26.0.12">
  <diagram name="Page-1" id="v9_CEsnEqUl_1BxyCEYp">
    <mxGraphModel dx="1434" dy="1878" grid="1" gridSize="10" guides="1" tooltips="1" connect="1" arrows="1" fold="1" page="1" pageScale="1" pageWidth="827" pageHeight="1169" math="0" shadow="1">
      <root>
        <mxCell id="0" />
        <mxCell id="1" parent="0" />
        <mxCell id="NHWWXmp2-ek5u91lErGf-46" value="" style="rounded=0;whiteSpace=wrap;html=1;" parent="1" vertex="1">
          <mxGeometry x="115" y="-1030" width="645" height="730" as="geometry" />
        </mxCell>
        <mxCell id="NHWWXmp2-ek5u91lErGf-2" value="&lt;b&gt;&lt;font style=&quot;font-size: 13px;&quot;&gt;Administrateur&lt;/font&gt;&lt;/b&gt;" style="shape=umlActor;verticalLabelPosition=bottom;verticalAlign=top;html=1;outlineConnect=0;" parent="1" vertex="1">
          <mxGeometry x="410" y="-1160" width="32.5" height="90" as="geometry" />
        </mxCell>
        <mxCell id="NHWWXmp2-ek5u91lErGf-3" value="Evénement réservation de bus" style="ellipse;whiteSpace=wrap;html=1;" parent="1" vertex="1">
          <mxGeometry x="590" y="-830" width="120" height="80" as="geometry" />
        </mxCell>
        <mxCell id="NHWWXmp2-ek5u91lErGf-4" value="Evénement réservation de sallle" style="ellipse;whiteSpace=wrap;html=1;" parent="1" vertex="1">
          <mxGeometry x="440" y="-820" width="120" height="80" as="geometry" />
        </mxCell>
        <mxCell id="NHWWXmp2-ek5u91lErGf-5" value="Suprimer événement" style="ellipse;whiteSpace=wrap;html=1;" parent="1" vertex="1">
          <mxGeometry x="170" y="-830" width="120" height="80" as="geometry" />
        </mxCell>
        <mxCell id="NHWWXmp2-ek5u91lErGf-6" value="Se connecter" style="ellipse;whiteSpace=wrap;html=1;" parent="1" vertex="1">
          <mxGeometry x="390" y="-650" width="120" height="80" as="geometry" />
        </mxCell>
        <mxCell id="NHWWXmp2-ek5u91lErGf-8" value="" style="endArrow=none;html=1;rounded=0;entryX=0;entryY=0;entryDx=0;entryDy=0;" parent="1" target="NHWWXmp2-ek5u91lErGf-26" edge="1">
          <mxGeometry width="50" height="50" relative="1" as="geometry">
            <mxPoint x="440" y="-1040" as="sourcePoint" />
            <mxPoint x="180" y="-850" as="targetPoint" />
          </mxGeometry>
        </mxCell>
        <mxCell id="NHWWXmp2-ek5u91lErGf-9" value="" style="endArrow=none;html=1;rounded=0;entryX=0.5;entryY=0;entryDx=0;entryDy=0;" parent="1" target="NHWWXmp2-ek5u91lErGf-5" edge="1">
          <mxGeometry width="50" height="50" relative="1" as="geometry">
            <mxPoint x="400" y="-1040" as="sourcePoint" />
            <mxPoint x="180" y="-790" as="targetPoint" />
          </mxGeometry>
        </mxCell>
        <mxCell id="NHWWXmp2-ek5u91lErGf-13" value="" style="endArrow=open;html=1;rounded=0;exitX=0.5;exitY=1;exitDx=0;exitDy=0;dashed=1;endFill=0;entryX=0.597;entryY=-0.006;entryDx=0;entryDy=0;entryPerimeter=0;" parent="1" source="NHWWXmp2-ek5u91lErGf-4" target="NHWWXmp2-ek5u91lErGf-6" edge="1">
          <mxGeometry width="50" height="50" relative="1" as="geometry">
            <mxPoint x="430" y="-660" as="sourcePoint" />
            <mxPoint x="486.1420597407491" y="-649.7898652770282" as="targetPoint" />
          </mxGeometry>
        </mxCell>
        <mxCell id="NHWWXmp2-ek5u91lErGf-14" value="&lt;b&gt;&lt;span style=&quot;font-size: 12px; text-wrap: wrap; background-color: rgb(251, 251, 251);&quot;&gt;«i&lt;/span&gt;&lt;span style=&quot;font-size: 12px; text-wrap: wrap; background-color: rgb(251, 251, 251);&quot;&gt;nclude»&lt;/span&gt;&lt;/b&gt;" style="edgeLabel;html=1;align=center;verticalAlign=middle;resizable=0;points=[];rotation=5;" parent="NHWWXmp2-ek5u91lErGf-13" vertex="1" connectable="0">
          <mxGeometry x="-0.0111" y="2" relative="1" as="geometry">
            <mxPoint y="1" as="offset" />
          </mxGeometry>
        </mxCell>
        <mxCell id="NHWWXmp2-ek5u91lErGf-15" value="" style="endArrow=open;html=1;rounded=0;exitX=0.5;exitY=1;exitDx=0;exitDy=0;entryX=0.91;entryY=0.229;entryDx=0;entryDy=0;dashed=1;endFill=0;entryPerimeter=0;" parent="1" source="NHWWXmp2-ek5u91lErGf-3" target="NHWWXmp2-ek5u91lErGf-6" edge="1">
          <mxGeometry width="50" height="50" relative="1" as="geometry">
            <mxPoint x="328" y="-880" as="sourcePoint" />
            <mxPoint x="522.4264068711927" y="-638.2842712474621" as="targetPoint" />
          </mxGeometry>
        </mxCell>
        <mxCell id="NHWWXmp2-ek5u91lErGf-16" value="&lt;b&gt;&lt;span style=&quot;font-size: 12px; text-wrap: wrap; background-color: rgb(251, 251, 251);&quot;&gt;«i&lt;/span&gt;&lt;span style=&quot;font-size: 12px; text-wrap: wrap; background-color: rgb(251, 251, 251);&quot;&gt;nclude»&lt;/span&gt;&lt;/b&gt;" style="edgeLabel;html=1;align=center;verticalAlign=middle;resizable=0;points=[];rotation=40;" parent="NHWWXmp2-ek5u91lErGf-15" vertex="1" connectable="0">
          <mxGeometry x="-0.0111" y="2" relative="1" as="geometry">
            <mxPoint y="1" as="offset" />
          </mxGeometry>
        </mxCell>
        <mxCell id="NHWWXmp2-ek5u91lErGf-24" value="" style="endArrow=open;html=1;rounded=0;exitX=0.5;exitY=1;exitDx=0;exitDy=0;entryX=0.052;entryY=0.237;entryDx=0;entryDy=0;dashed=1;entryPerimeter=0;endFill=0;" parent="1" source="NHWWXmp2-ek5u91lErGf-5" target="NHWWXmp2-ek5u91lErGf-6" edge="1">
          <mxGeometry width="50" height="50" relative="1" as="geometry">
            <mxPoint x="338" y="-783" as="sourcePoint" />
            <mxPoint x="423.24" y="-628" as="targetPoint" />
          </mxGeometry>
        </mxCell>
        <mxCell id="NHWWXmp2-ek5u91lErGf-25" value="&lt;b&gt;&lt;span style=&quot;font-size: 12px; text-wrap: wrap; background-color: rgb(251, 251, 251);&quot;&gt;«i&lt;/span&gt;&lt;span style=&quot;font-size: 12px; text-wrap: wrap; background-color: rgb(251, 251, 251);&quot;&gt;nclude»&lt;/span&gt;&lt;/b&gt;" style="edgeLabel;html=1;align=center;verticalAlign=middle;resizable=0;points=[];rotation=0;" parent="NHWWXmp2-ek5u91lErGf-24" vertex="1" connectable="0">
          <mxGeometry x="-0.0111" y="2" relative="1" as="geometry">
            <mxPoint y="1" as="offset" />
          </mxGeometry>
        </mxCell>
        <mxCell id="NHWWXmp2-ek5u91lErGf-26" value="Créer un événement" style="ellipse;whiteSpace=wrap;html=1;" parent="1" vertex="1">
          <mxGeometry x="490" y="-960" width="120" height="80" as="geometry" />
        </mxCell>
        <mxCell id="NHWWXmp2-ek5u91lErGf-27" value="" style="endArrow=classic;html=1;rounded=0;exitX=0.383;exitY=0.055;exitDx=0;exitDy=0;dashed=1;entryX=1;entryY=1;entryDx=0;entryDy=0;exitPerimeter=0;" parent="1" source="NHWWXmp2-ek5u91lErGf-3" target="NHWWXmp2-ek5u91lErGf-26" edge="1">
          <mxGeometry width="50" height="50" relative="1" as="geometry">
            <mxPoint x="272" y="-870" as="sourcePoint" />
            <mxPoint x="384" y="-867" as="targetPoint" />
          </mxGeometry>
        </mxCell>
        <mxCell id="NHWWXmp2-ek5u91lErGf-29" value="" style="endArrow=classic;html=1;rounded=0;exitX=0.662;exitY=0.041;exitDx=0;exitDy=0;dashed=1;exitPerimeter=0;" parent="1" source="NHWWXmp2-ek5u91lErGf-4" target="NHWWXmp2-ek5u91lErGf-26" edge="1">
          <mxGeometry width="50" height="50" relative="1" as="geometry">
            <mxPoint x="272" y="-861" as="sourcePoint" />
            <mxPoint x="240" y="-850" as="targetPoint" />
          </mxGeometry>
        </mxCell>
        <mxCell id="NHWWXmp2-ek5u91lErGf-32" value="Modifier événement" style="ellipse;whiteSpace=wrap;html=1;" parent="1" vertex="1">
          <mxGeometry x="310" y="-820" width="120" height="80" as="geometry" />
        </mxCell>
        <mxCell id="NHWWXmp2-ek5u91lErGf-33" value="" style="endArrow=none;html=1;rounded=0;entryX=0.5;entryY=0;entryDx=0;entryDy=0;" parent="1" target="NHWWXmp2-ek5u91lErGf-32" edge="1">
          <mxGeometry width="50" height="50" relative="1" as="geometry">
            <mxPoint x="420" y="-1040" as="sourcePoint" />
            <mxPoint x="120" y="-750" as="targetPoint" />
          </mxGeometry>
        </mxCell>
        <mxCell id="NHWWXmp2-ek5u91lErGf-34" value="" style="endArrow=open;html=1;rounded=0;exitX=0.5;exitY=1;exitDx=0;exitDy=0;dashed=1;endFill=0;entryX=0.365;entryY=-0.006;entryDx=0;entryDy=0;entryPerimeter=0;" parent="1" source="NHWWXmp2-ek5u91lErGf-32" target="NHWWXmp2-ek5u91lErGf-6" edge="1">
          <mxGeometry width="50" height="50" relative="1" as="geometry">
            <mxPoint x="270" y="-770" as="sourcePoint" />
            <mxPoint x="446.39999999999986" y="-644.8000000000002" as="targetPoint" />
          </mxGeometry>
        </mxCell>
        <mxCell id="NHWWXmp2-ek5u91lErGf-35" value="&lt;b&gt;&lt;span style=&quot;font-size: 12px; text-wrap: wrap; background-color: rgb(251, 251, 251);&quot;&gt;«i&lt;/span&gt;&lt;span style=&quot;font-size: 12px; text-wrap: wrap; background-color: rgb(251, 251, 251);&quot;&gt;nclude»&lt;/span&gt;&lt;/b&gt;" style="edgeLabel;html=1;align=center;verticalAlign=middle;resizable=0;points=[];rotation=0;" parent="NHWWXmp2-ek5u91lErGf-34" vertex="1" connectable="0">
          <mxGeometry x="-0.0111" y="2" relative="1" as="geometry">
            <mxPoint y="1" as="offset" />
          </mxGeometry>
        </mxCell>
        <mxCell id="NHWWXmp2-ek5u91lErGf-38" value="&lt;b&gt;&lt;font style=&quot;font-size: 14px;&quot;&gt;Consommateur&lt;/font&gt;&lt;/b&gt;" style="shape=umlActor;verticalLabelPosition=bottom;verticalAlign=top;html=1;outlineConnect=0;" parent="1" vertex="1">
          <mxGeometry x="427" y="-230" width="46" height="110" as="geometry" />
        </mxCell>
        <mxCell id="NHWWXmp2-ek5u91lErGf-40" value="résaervation de salle" style="ellipse;whiteSpace=wrap;html=1;" parent="1" vertex="1">
          <mxGeometry x="470" y="-480" width="120" height="80" as="geometry" />
        </mxCell>
        <mxCell id="NHWWXmp2-ek5u91lErGf-42" value="résaervation de bus" style="ellipse;whiteSpace=wrap;html=1;" parent="1" vertex="1">
          <mxGeometry x="600" y="-490" width="120" height="80" as="geometry" />
        </mxCell>
        <mxCell id="NHWWXmp2-ek5u91lErGf-43" value="Annuler une réservation" style="ellipse;whiteSpace=wrap;html=1;" parent="1" vertex="1">
          <mxGeometry x="340" y="-470" width="120" height="80" as="geometry" />
        </mxCell>
        <mxCell id="NHWWXmp2-ek5u91lErGf-44" value="Consulter les événement" style="ellipse;whiteSpace=wrap;html=1;" parent="1" vertex="1">
          <mxGeometry x="200" y="-480" width="120" height="80" as="geometry" />
        </mxCell>
        <mxCell id="NHWWXmp2-ek5u91lErGf-45" value="" style="endArrow=none;html=1;rounded=0;entryX=0.5;entryY=1;entryDx=0;entryDy=0;" parent="1" target="NHWWXmp2-ek5u91lErGf-42" edge="1">
          <mxGeometry width="50" height="50" relative="1" as="geometry">
            <mxPoint x="480" y="-240" as="sourcePoint" />
            <mxPoint x="540" y="-320" as="targetPoint" />
          </mxGeometry>
        </mxCell>
        <mxCell id="NHWWXmp2-ek5u91lErGf-47" value="" style="endArrow=none;html=1;rounded=0;entryX=0.5;entryY=1;entryDx=0;entryDy=0;" parent="1" target="NHWWXmp2-ek5u91lErGf-40" edge="1">
          <mxGeometry width="50" height="50" relative="1" as="geometry">
            <mxPoint x="460" y="-250" as="sourcePoint" />
            <mxPoint x="390" y="-470" as="targetPoint" />
          </mxGeometry>
        </mxCell>
        <mxCell id="NHWWXmp2-ek5u91lErGf-48" value="" style="endArrow=none;html=1;rounded=0;entryX=0.5;entryY=1;entryDx=0;entryDy=0;" parent="1" target="NHWWXmp2-ek5u91lErGf-43" edge="1">
          <mxGeometry width="50" height="50" relative="1" as="geometry">
            <mxPoint x="430" y="-240" as="sourcePoint" />
            <mxPoint x="390" y="-470" as="targetPoint" />
          </mxGeometry>
        </mxCell>
        <mxCell id="NHWWXmp2-ek5u91lErGf-49" value="" style="endArrow=none;html=1;rounded=0;entryX=0.5;entryY=1;entryDx=0;entryDy=0;" parent="1" target="NHWWXmp2-ek5u91lErGf-44" edge="1">
          <mxGeometry width="50" height="50" relative="1" as="geometry">
            <mxPoint x="410" y="-240" as="sourcePoint" />
            <mxPoint x="390" y="-470" as="targetPoint" />
          </mxGeometry>
        </mxCell>
        <mxCell id="NHWWXmp2-ek5u91lErGf-52" value="" style="endArrow=open;html=1;rounded=0;exitX=0.5;exitY=0;exitDx=0;exitDy=0;entryX=0;entryY=1;entryDx=0;entryDy=0;dashed=1;endFill=0;" parent="1" source="NHWWXmp2-ek5u91lErGf-43" edge="1">
          <mxGeometry width="50" height="50" relative="1" as="geometry">
            <mxPoint x="230" y="-460" as="sourcePoint" />
            <mxPoint x="418" y="-572" as="targetPoint" />
          </mxGeometry>
        </mxCell>
        <mxCell id="NHWWXmp2-ek5u91lErGf-53" value="&lt;b&gt;&lt;span style=&quot;font-size: 12px; text-wrap: wrap; background-color: rgb(251, 251, 251);&quot;&gt;«i&lt;/span&gt;&lt;span style=&quot;font-size: 12px; text-wrap: wrap; background-color: rgb(251, 251, 251);&quot;&gt;nclude»&lt;/span&gt;&lt;/b&gt;" style="edgeLabel;html=1;align=center;verticalAlign=middle;resizable=0;points=[];rotation=0;" parent="NHWWXmp2-ek5u91lErGf-52" vertex="1" connectable="0">
          <mxGeometry x="-0.0111" y="2" relative="1" as="geometry">
            <mxPoint y="1" as="offset" />
          </mxGeometry>
        </mxCell>
        <mxCell id="NHWWXmp2-ek5u91lErGf-54" value="" style="endArrow=open;html=1;rounded=0;exitX=0.5;exitY=0;exitDx=0;exitDy=0;entryX=0.587;entryY=1.053;entryDx=0;entryDy=0;dashed=1;endFill=0;entryPerimeter=0;" parent="1" source="NHWWXmp2-ek5u91lErGf-40" target="NHWWXmp2-ek5u91lErGf-6" edge="1">
          <mxGeometry width="50" height="50" relative="1" as="geometry">
            <mxPoint x="380" y="-450" as="sourcePoint" />
            <mxPoint x="428" y="-562" as="targetPoint" />
          </mxGeometry>
        </mxCell>
        <mxCell id="NHWWXmp2-ek5u91lErGf-55" value="&lt;b&gt;&lt;span style=&quot;font-size: 12px; text-wrap: wrap; background-color: rgb(251, 251, 251);&quot;&gt;«i&lt;/span&gt;&lt;span style=&quot;font-size: 12px; text-wrap: wrap; background-color: rgb(251, 251, 251);&quot;&gt;nclude»&lt;/span&gt;&lt;/b&gt;" style="edgeLabel;html=1;align=center;verticalAlign=middle;resizable=0;points=[];rotation=0;" parent="NHWWXmp2-ek5u91lErGf-54" vertex="1" connectable="0">
          <mxGeometry x="-0.0111" y="2" relative="1" as="geometry">
            <mxPoint y="1" as="offset" />
          </mxGeometry>
        </mxCell>
        <mxCell id="NHWWXmp2-ek5u91lErGf-56" value="" style="endArrow=open;html=1;rounded=0;exitX=0.287;exitY=0.093;exitDx=0;exitDy=0;entryX=0.587;entryY=1.053;entryDx=0;entryDy=0;dashed=1;endFill=0;entryPerimeter=0;exitPerimeter=0;" parent="1" source="NHWWXmp2-ek5u91lErGf-42" edge="1">
          <mxGeometry width="50" height="50" relative="1" as="geometry">
            <mxPoint x="550" y="-494" as="sourcePoint" />
            <mxPoint x="500" y="-590" as="targetPoint" />
          </mxGeometry>
        </mxCell>
        <mxCell id="NHWWXmp2-ek5u91lErGf-57" value="&lt;b&gt;&lt;span style=&quot;font-size: 12px; text-wrap: wrap; background-color: rgb(251, 251, 251);&quot;&gt;«i&lt;/span&gt;&lt;span style=&quot;font-size: 12px; text-wrap: wrap; background-color: rgb(251, 251, 251);&quot;&gt;nclude»&lt;/span&gt;&lt;/b&gt;" style="edgeLabel;html=1;align=center;verticalAlign=middle;resizable=0;points=[];rotation=0;" parent="NHWWXmp2-ek5u91lErGf-56" vertex="1" connectable="0">
          <mxGeometry x="-0.0111" y="2" relative="1" as="geometry">
            <mxPoint y="1" as="offset" />
          </mxGeometry>
        </mxCell>
        <mxCell id="NHWWXmp2-ek5u91lErGf-58" value="&lt;b&gt;Anonyme&lt;/b&gt;" style="shape=umlActor;verticalLabelPosition=bottom;verticalAlign=top;html=1;outlineConnect=0;" parent="1" vertex="1">
          <mxGeometry x="40" y="-490" width="40" height="80" as="geometry" />
        </mxCell>
        <mxCell id="NHWWXmp2-ek5u91lErGf-60" value="" style="endArrow=none;html=1;rounded=0;entryX=0;entryY=0.5;entryDx=0;entryDy=0;" parent="1" target="NHWWXmp2-ek5u91lErGf-44" edge="1">
          <mxGeometry width="50" height="50" relative="1" as="geometry">
            <mxPoint x="90" y="-440" as="sourcePoint" />
            <mxPoint x="380" y="-580" as="targetPoint" />
          </mxGeometry>
        </mxCell>
        <mxCell id="NHWWXmp2-ek5u91lErGf-65" value="&lt;b&gt;Gmail API&lt;/b&gt;" style="shape=umlActor;verticalLabelPosition=bottom;verticalAlign=top;html=1;outlineConnect=0;" parent="1" vertex="1">
          <mxGeometry x="780" y="-950" width="30" height="60" as="geometry" />
        </mxCell>
        <mxCell id="NHWWXmp2-ek5u91lErGf-66" value="" style="endArrow=none;html=1;rounded=0;" parent="1" edge="1">
          <mxGeometry width="50" height="50" relative="1" as="geometry">
            <mxPoint x="610" y="-915" as="sourcePoint" />
            <mxPoint x="780" y="-910" as="targetPoint" />
          </mxGeometry>
        </mxCell>
        <mxCell id="NHWWXmp2-ek5u91lErGf-70" value="&lt;b&gt;&lt;span style=&quot;font-size: 12px; text-wrap: wrap; background-color: rgb(251, 251, 251);&quot;&gt;«secondary&lt;/span&gt;&lt;span style=&quot;font-size: 12px; text-wrap: wrap; background-color: rgb(251, 251, 251);&quot;&gt;»&lt;/span&gt;&lt;/b&gt;" style="edgeLabel;html=1;align=center;verticalAlign=middle;resizable=0;points=[];" parent="NHWWXmp2-ek5u91lErGf-66" vertex="1" connectable="0">
          <mxGeometry x="-0.0194" relative="1" as="geometry">
            <mxPoint as="offset" />
          </mxGeometry>
        </mxCell>
      </root>
    </mxGraphModel>
  </diagram>
</mxfile>
